<svg id="bb5a72c1-9c63-497e-b65e-3e14caf5c9ba" data-name="Ebene 1" xmlns="http://www.w3.org/2000/svg" xmlns:xlink="http://www.w3.org/1999/xlink" viewBox="0 0 147.56 208.99"><defs><clipPath id="aa58facc-5ab3-4f22-9660-96cfd423b1d8"><path d="M73.78,121.52h0a47.74,47.74,0,1,1,47.74-47.74A47.78,47.78,0,0,1,73.78,121.52Z" style="fill:none"/></clipPath></defs><path d="M73.88,0h-.1A73.84,73.84,0,0,0,0,73.68c0,19.7,9.15,44.42,27.19,73.5a448.24,448.24,0,0,0,37.44,51L73.79,209l9.15-10.8c19.43-22.93,64.62-81,64.62-124.41A73.73,73.73,0,0,0,73.88,0Z" style="fill:#fff"/><g style="clip-path:url(#aa58facc-5ab3-4f22-9660-96cfd423b1d8)"><rect x="-7.93" y="26.11" width="54.47" height="95.35" style="fill:#010101"/><rect x="46.54" y="26.11" width="54.47" height="95.35" style="fill:#ffea37"/><rect x="101.02" y="26.11" width="54.47" height="95.35" style="fill:#e62a2f"/><rect x="-7.93" y="26.11" width="163.42" height="95.35" style="fill:none"/></g><path d="M117.52,30.11A61.39,61.39,0,0,0,73.88,12h-.14A61.8,61.8,0,0,0,12,73.69c0,40.73,47.11,99.45,61.78,116.74,14.66-17.3,61.78-76,61.78-116.65A61.31,61.31,0,0,0,117.52,30.11ZM73.78,121.52a47.74,47.74,0,1,1,47.74-47.74A47.78,47.78,0,0,1,73.78,121.52Z" style="fill:#8bbd7e"/></svg>