<svg id="f0904ee5-b37e-49e2-af02-0b6ac89a124a" data-name="Ebene 1" xmlns="http://www.w3.org/2000/svg" viewBox="0 0 489.55 489.55"><circle cx="252.43" cy="98.85" r="6.68" style="fill:#49725b"/><circle cx="237.12" cy="98.85" r="6.68" style="fill:#49725b"/><circle cx="267.79" cy="98.85" r="6.68" style="fill:#49725b"/><circle cx="283.15" cy="98.85" r="6.68" style="fill:#49725b"/><circle cx="298.51" cy="98.85" r="6.68" style="fill:#49725b"/><circle cx="313.87" cy="98.85" r="6.68" style="fill:#49725b"/><circle cx="344.59" cy="98.85" r="6.68" style="fill:#49725b"/><circle cx="359.95" cy="98.85" r="6.68" style="fill:#49725b"/><circle cx="375.31" cy="98.85" r="6.68" style="fill:#49725b"/><circle cx="390.67" cy="98.85" r="6.68" style="fill:#49725b"/><circle cx="406.03" cy="98.85" r="6.68" style="fill:#49725b"/><circle cx="252.43" cy="83.48" r="6.68" style="fill:#49725b"/><circle cx="267.79" cy="83.48" r="6.68" style="fill:#49725b"/><circle cx="283.15" cy="83.48" r="6.68" style="fill:#49725b"/><circle cx="298.51" cy="83.48" r="6.68" style="fill:#49725b"/><circle cx="313.87" cy="83.48" r="6.68" style="fill:#49725b"/><circle cx="359.95" cy="83.48" r="6.68" style="fill:#49725b"/><circle cx="375.31" cy="83.48" r="6.68" style="fill:#49725b"/><circle cx="390.67" cy="83.48" r="6.68" style="fill:#49725b"/><circle cx="406.03" cy="83.48" r="6.68" style="fill:#49725b"/><circle cx="267.79" cy="68.12" r="6.68" style="fill:#49725b"/><circle cx="283.15" cy="68.12" r="6.68" style="fill:#49725b"/><circle cx="298.51" cy="68.12" r="6.68" style="fill:#49725b"/><circle cx="313.87" cy="68.12" r="6.68" style="fill:#49725b"/><circle cx="359.95" cy="68.12" r="6.68" style="fill:#49725b"/><circle cx="375.31" cy="68.12" r="6.68" style="fill:#49725b"/><circle cx="390.67" cy="68.12" r="6.68" style="fill:#49725b"/><circle cx="6.71" cy="68.12" r="6.68" style="fill:#49725b"/><circle cx="22.07" cy="68.12" r="6.68" style="fill:#49725b"/><circle cx="267.79" cy="52.76" r="6.68" style="fill:#49725b"/><circle cx="283.15" cy="52.76" r="6.68" style="fill:#49725b"/><circle cx="298.51" cy="52.76" r="6.68" style="fill:#49725b"/><circle cx="313.87" cy="52.76" r="6.68" style="fill:#49725b"/><circle cx="329.23" cy="52.76" r="6.68" style="fill:#49725b"/><circle cx="344.59" cy="52.76" r="6.68" style="fill:#49725b"/><circle cx="359.95" cy="52.76" r="6.68" style="fill:#49725b"/><circle cx="375.31" cy="52.76" r="6.68" style="fill:#49725b"/><circle cx="6.71" cy="52.76" r="6.68" style="fill:#49725b"/><circle cx="22.07" cy="52.76" r="6.68" style="fill:#49725b"/><circle cx="37.43" cy="52.76" r="6.68" style="fill:#49725b"/><circle cx="52.79" cy="52.76" r="6.68" style="fill:#49725b"/><circle cx="283.15" cy="37.4" r="6.68" style="fill:#49725b"/><circle cx="298.51" cy="37.4" r="6.68" style="fill:#49725b"/><circle cx="313.87" cy="37.4" r="6.68" style="fill:#49725b"/><circle cx="329.23" cy="37.4" r="6.68" style="fill:#49725b"/><circle cx="344.59" cy="37.4" r="6.68" style="fill:#49725b"/><circle cx="359.95" cy="37.4" r="6.68" style="fill:#49725b"/><circle cx="375.31" cy="37.4" r="6.68" style="fill:#49725b"/><circle cx="6.71" cy="37.4" r="6.68" style="fill:#49725b"/><circle cx="22.07" cy="37.4" r="6.68" style="fill:#49725b"/><circle cx="37.43" cy="37.4" r="6.68" style="fill:#49725b"/><circle cx="52.79" cy="37.4" r="6.68" style="fill:#49725b"/><circle cx="267.79" cy="22.04" r="6.68" style="fill:#49725b"/><circle cx="283.15" cy="22.04" r="6.68" style="fill:#49725b"/><circle cx="298.51" cy="22.04" r="6.68" style="fill:#49725b"/><circle cx="313.87" cy="22.04" r="6.68" style="fill:#49725b"/><circle cx="329.23" cy="22.04" r="6.68" style="fill:#49725b"/><circle cx="344.59" cy="22.04" r="6.68" style="fill:#49725b"/><circle cx="359.95" cy="22.04" r="6.68" style="fill:#49725b"/><circle cx="375.31" cy="22.04" r="6.68" style="fill:#49725b"/><circle cx="6.71" cy="22.04" r="6.68" style="fill:#49725b"/><circle cx="22.07" cy="22.04" r="6.68" style="fill:#49725b"/><circle cx="37.43" cy="22.04" r="6.68" style="fill:#49725b"/><circle cx="283.15" cy="6.68" r="6.68" style="fill:#49725b"/><circle cx="298.51" cy="6.68" r="6.68" style="fill:#49725b"/><circle cx="313.87" cy="6.68" r="6.68" style="fill:#49725b"/><circle cx="329.23" cy="6.68" r="6.68" style="fill:#49725b"/><circle cx="344.59" cy="6.68" r="6.68" style="fill:#49725b"/><circle cx="359.95" cy="6.68" r="6.68" style="fill:#49725b"/><circle cx="6.71" cy="6.68" r="6.68" style="fill:#49725b"/><circle cx="252.43" cy="252.45" r="6.68" style="fill:#49725b"/><circle cx="237.12" cy="252.45" r="6.68" style="fill:#49725b"/><circle cx="267.79" cy="252.45" r="6.68" style="fill:#49725b"/><circle cx="283.15" cy="252.45" r="6.68" style="fill:#49725b"/><circle cx="359.95" cy="252.45" r="6.68" style="fill:#49725b"/><circle cx="375.31" cy="252.45" r="6.68" style="fill:#49725b"/><circle cx="390.67" cy="252.45" r="6.68" style="fill:#49725b"/><circle cx="406.03" cy="252.45" r="6.68" style="fill:#49725b"/><circle cx="421.39" cy="252.45" r="6.68" style="fill:#49725b"/><circle cx="436.75" cy="252.45" r="6.68" style="fill:#49725b"/><circle cx="452.12" cy="252.45" r="6.68" style="fill:#49725b"/><circle cx="467.48" cy="252.45" r="6.68" style="fill:#49725b"/><circle cx="52.79" cy="252.45" r="6.68" style="fill:#49725b"/><circle cx="68.15" cy="252.45" r="6.68" style="fill:#49725b"/><circle cx="98.87" cy="252.45" r="6.68" style="fill:#49725b"/><circle cx="114.23" cy="252.45" r="6.68" style="fill:#49725b"/><circle cx="221.76" cy="252.45" r="6.68" style="fill:#49725b"/><circle cx="237.12" cy="237.09" r="6.68" style="fill:#49725b"/><circle cx="267.79" cy="237.09" r="6.68" style="fill:#49725b"/><circle cx="283.15" cy="237.09" r="6.68" style="fill:#49725b"/><circle cx="298.51" cy="237.09" r="6.68" style="fill:#49725b"/><circle cx="344.59" cy="237.09" r="6.68" style="fill:#49725b"/><circle cx="359.95" cy="237.09" r="6.68" style="fill:#49725b"/><circle cx="375.31" cy="237.09" r="6.68" style="fill:#49725b"/><circle cx="390.67" cy="237.09" r="6.68" style="fill:#49725b"/><circle cx="406.03" cy="237.09" r="6.68" style="fill:#49725b"/><circle cx="421.39" cy="237.09" r="6.68" style="fill:#49725b"/><circle cx="436.75" cy="237.09" r="6.68" style="fill:#49725b"/><circle cx="452.12" cy="237.09" r="6.68" style="fill:#49725b"/><circle cx="83.51" cy="237.09" r="6.68" style="fill:#49725b"/><circle cx="98.87" cy="237.09" r="6.68" style="fill:#49725b"/><circle cx="114.23" cy="237.09" r="6.68" style="fill:#49725b"/><circle cx="221.76" cy="237.09" r="6.68" style="fill:#49725b"/><circle cx="237.12" cy="221.73" r="6.68" style="fill:#49725b"/><circle cx="267.79" cy="221.73" r="6.68" style="fill:#49725b"/><circle cx="283.15" cy="221.73" r="6.68" style="fill:#49725b"/><circle cx="298.51" cy="221.73" r="6.68" style="fill:#49725b"/><circle cx="329.23" cy="221.73" r="6.68" style="fill:#49725b"/><circle cx="359.95" cy="221.73" r="6.68" style="fill:#49725b"/><circle cx="375.31" cy="221.73" r="6.68" style="fill:#49725b"/><circle cx="390.67" cy="221.73" r="6.68" style="fill:#49725b"/><circle cx="406.03" cy="221.73" r="6.68" style="fill:#49725b"/><circle cx="421.39" cy="221.73" r="6.68" style="fill:#49725b"/><circle cx="436.75" cy="221.73" r="6.68" style="fill:#49725b"/><circle cx="452.12" cy="221.73" r="6.68" style="fill:#49725b"/><circle cx="83.51" cy="221.73" r="6.68" style="fill:#49725b"/><circle cx="98.87" cy="221.73" r="6.68" style="fill:#49725b"/><circle cx="114.23" cy="221.73" r="6.68" style="fill:#49725b"/><circle cx="267.79" cy="206.37" r="6.68" style="fill:#49725b"/><circle cx="283.15" cy="206.37" r="6.68" style="fill:#49725b"/><circle cx="298.51" cy="206.37" r="6.68" style="fill:#49725b"/><circle cx="375.31" cy="206.37" r="6.68" style="fill:#49725b"/><circle cx="390.67" cy="206.37" r="6.68" style="fill:#49725b"/><circle cx="406.03" cy="206.37" r="6.68" style="fill:#49725b"/><circle cx="68.15" cy="206.37" r="6.68" style="fill:#49725b"/><circle cx="83.51" cy="206.37" r="6.68" style="fill:#49725b"/><circle cx="98.87" cy="206.37" r="6.68" style="fill:#49725b"/><circle cx="206.4" cy="206.37" r="6.68" style="fill:#49725b"/><circle cx="221.76" cy="206.37" r="6.68" style="fill:#49725b"/><circle cx="252.43" cy="191.01" r="6.68" style="fill:#49725b"/><circle cx="237.12" cy="191.01" r="6.68" style="fill:#49725b"/><circle cx="267.79" cy="191.01" r="6.68" style="fill:#49725b"/><circle cx="283.15" cy="191.01" r="6.68" style="fill:#49725b"/><circle cx="298.51" cy="191.01" r="6.68" style="fill:#49725b"/><circle cx="313.87" cy="191.01" r="6.68" style="fill:#49725b"/><circle cx="359.95" cy="191.01" r="6.68" style="fill:#49725b"/><circle cx="375.31" cy="191.01" r="6.68" style="fill:#49725b"/><circle cx="390.67" cy="191.01" r="6.68" style="fill:#49725b"/><circle cx="406.03" cy="191.01" r="6.68" style="fill:#49725b"/><circle cx="83.51" cy="191.01" r="6.68" style="fill:#49725b"/><circle cx="98.87" cy="191.01" r="6.68" style="fill:#49725b"/><circle cx="114.23" cy="191.01" r="6.68" style="fill:#49725b"/><circle cx="191.04" cy="191.01" r="6.68" style="fill:#49725b"/><circle cx="206.4" cy="191.01" r="6.68" style="fill:#49725b"/><circle cx="221.76" cy="191.01" r="6.68" style="fill:#49725b"/><circle cx="252.43" cy="175.65" r="6.68" style="fill:#49725b"/><circle cx="237.12" cy="175.65" r="6.68" style="fill:#49725b"/><circle cx="267.79" cy="175.65" r="6.68" style="fill:#49725b"/><circle cx="283.15" cy="175.65" r="6.68" style="fill:#49725b"/><circle cx="298.51" cy="175.65" r="6.68" style="fill:#49725b"/><circle cx="313.87" cy="175.65" r="6.68" style="fill:#49725b"/><circle cx="375.31" cy="175.65" r="6.68" style="fill:#49725b"/><circle cx="390.67" cy="175.65" r="6.68" style="fill:#49725b"/><circle cx="191.04" cy="175.65" r="6.68" style="fill:#49725b"/><circle cx="206.4" cy="175.65" r="6.68" style="fill:#49725b"/><circle cx="221.76" cy="175.65" r="6.68" style="fill:#49725b"/><circle cx="252.43" cy="160.29" r="6.68" style="fill:#49725b"/><circle cx="237.12" cy="160.29" r="6.68" style="fill:#49725b"/><circle cx="267.79" cy="160.29" r="6.68" style="fill:#49725b"/><circle cx="283.15" cy="160.29" r="6.68" style="fill:#49725b"/><circle cx="298.51" cy="160.29" r="6.68" style="fill:#49725b"/><circle cx="344.59" cy="160.29" r="6.68" style="fill:#49725b"/><circle cx="359.95" cy="160.29" r="6.68" style="fill:#49725b"/><circle cx="144.96" cy="160.29" r="6.68" style="fill:#49725b"/><circle cx="191.04" cy="160.29" r="6.68" style="fill:#49725b"/><circle cx="206.4" cy="160.29" r="6.68" style="fill:#49725b"/><circle cx="221.76" cy="160.29" r="6.68" style="fill:#49725b"/><circle cx="252.43" cy="144.93" r="6.68" style="fill:#49725b"/><circle cx="237.12" cy="144.93" r="6.68" style="fill:#49725b"/><circle cx="267.79" cy="144.93" r="6.68" style="fill:#49725b"/><circle cx="283.15" cy="144.93" r="6.68" style="fill:#49725b"/><circle cx="298.51" cy="144.93" r="6.68" style="fill:#49725b"/><circle cx="344.59" cy="144.93" r="6.68" style="fill:#49725b"/><circle cx="359.95" cy="144.93" r="6.68" style="fill:#49725b"/><circle cx="375.31" cy="144.93" r="6.68" style="fill:#49725b"/><circle cx="390.67" cy="144.93" r="6.68" style="fill:#49725b"/><circle cx="206.4" cy="144.93" r="6.68" style="fill:#49725b"/><circle cx="221.76" cy="144.93" r="6.68" style="fill:#49725b"/><circle cx="252.43" cy="129.57" r="6.68" style="fill:#49725b"/><circle cx="237.12" cy="129.57" r="6.68" style="fill:#49725b"/><circle cx="267.79" cy="129.57" r="6.68" style="fill:#49725b"/><circle cx="283.15" cy="129.57" r="6.68" style="fill:#49725b"/><circle cx="298.51" cy="129.57" r="6.68" style="fill:#49725b"/><circle cx="344.59" cy="129.57" r="6.68" style="fill:#49725b"/><circle cx="359.95" cy="129.57" r="6.68" style="fill:#49725b"/><circle cx="375.31" cy="129.57" r="6.68" style="fill:#49725b"/><circle cx="390.67" cy="129.57" r="6.68" style="fill:#49725b"/><circle cx="406.03" cy="129.57" r="6.68" style="fill:#49725b"/><circle cx="98.87" cy="129.57" r="6.68" style="fill:#49725b"/><circle cx="206.4" cy="129.57" r="6.68" style="fill:#49725b"/><circle cx="221.76" cy="129.57" r="6.68" style="fill:#49725b"/><circle cx="252.43" cy="114.21" r="6.68" style="fill:#49725b"/><circle cx="237.12" cy="114.21" r="6.68" style="fill:#49725b"/><circle cx="267.79" cy="114.21" r="6.68" style="fill:#49725b"/><circle cx="283.15" cy="114.21" r="6.68" style="fill:#49725b"/><circle cx="298.51" cy="114.21" r="6.68" style="fill:#49725b"/><circle cx="329.23" cy="114.21" r="6.68" style="fill:#49725b"/><circle cx="344.59" cy="114.21" r="6.68" style="fill:#49725b"/><circle cx="359.95" cy="114.21" r="6.68" style="fill:#49725b"/><circle cx="375.31" cy="114.21" r="6.68" style="fill:#49725b"/><circle cx="390.67" cy="114.21" r="6.68" style="fill:#49725b"/><circle cx="406.03" cy="114.21" r="6.68" style="fill:#49725b"/><circle cx="221.76" cy="114.21" r="6.68" style="fill:#49725b"/><circle cx="252.43" cy="406.06" r="6.68" style="fill:#49725b"/><circle cx="237.12" cy="406.06" r="6.68" style="fill:#49725b"/><circle cx="267.79" cy="406.06" r="6.68" style="fill:#49725b"/><circle cx="283.15" cy="406.06" r="6.68" style="fill:#49725b"/><circle cx="298.51" cy="406.06" r="6.68" style="fill:#49725b"/><circle cx="313.87" cy="406.06" r="6.68" style="fill:#49725b"/><circle cx="329.23" cy="406.06" r="6.68" style="fill:#49725b"/><circle cx="344.59" cy="406.06" r="6.68" style="fill:#49725b"/><circle cx="359.95" cy="406.06" r="6.68" style="fill:#49725b"/><circle cx="375.31" cy="406.06" r="6.68" style="fill:#49725b"/><circle cx="390.67" cy="406.06" r="6.68" style="fill:#49725b"/><circle cx="406.03" cy="406.06" r="6.68" style="fill:#49725b"/><circle cx="421.39" cy="406.06" r="6.68" style="fill:#49725b"/><circle cx="436.75" cy="406.06" r="6.68" style="fill:#49725b"/><circle cx="452.12" cy="406.06" r="6.68" style="fill:#49725b"/><circle cx="467.48" cy="406.06" r="6.68" style="fill:#49725b"/><circle cx="482.84" cy="406.06" r="6.68" style="fill:#49725b"/><circle cx="98.87" cy="406.06" r="6.68" style="fill:#49725b"/><circle cx="114.23" cy="406.06" r="6.68" style="fill:#49725b"/><circle cx="129.59" cy="406.06" r="6.68" style="fill:#49725b"/><circle cx="144.96" cy="406.06" r="6.68" style="fill:#49725b"/><circle cx="160.32" cy="406.06" r="6.68" style="fill:#49725b"/><circle cx="175.68" cy="406.06" r="6.68" style="fill:#49725b"/><circle cx="191.04" cy="406.06" r="6.68" style="fill:#49725b"/><circle cx="206.4" cy="406.06" r="6.68" style="fill:#49725b"/><circle cx="221.76" cy="406.06" r="6.68" style="fill:#49725b"/><circle cx="252.43" cy="390.7" r="6.68" style="fill:#49725b"/><circle cx="237.12" cy="390.7" r="6.68" style="fill:#49725b"/><circle cx="267.79" cy="390.7" r="6.68" style="fill:#49725b"/><circle cx="283.15" cy="390.7" r="6.68" style="fill:#49725b"/><circle cx="298.51" cy="390.7" r="6.68" style="fill:#49725b"/><circle cx="313.87" cy="390.7" r="6.68" style="fill:#49725b"/><circle cx="329.23" cy="390.7" r="6.68" style="fill:#49725b"/><circle cx="344.59" cy="390.7" r="6.68" style="fill:#49725b"/><circle cx="359.95" cy="390.7" r="6.68" style="fill:#49725b"/><circle cx="375.31" cy="390.7" r="6.68" style="fill:#49725b"/><circle cx="390.67" cy="390.7" r="6.68" style="fill:#49725b"/><circle cx="406.03" cy="390.7" r="6.68" style="fill:#49725b"/><circle cx="421.39" cy="390.7" r="6.68" style="fill:#49725b"/><circle cx="436.75" cy="390.7" r="6.68" style="fill:#49725b"/><circle cx="452.12" cy="390.7" r="6.68" style="fill:#49725b"/><circle cx="467.48" cy="390.7" r="6.68" style="fill:#49725b"/><circle cx="482.84" cy="390.7" r="6.68" style="fill:#49725b"/><circle cx="83.51" cy="390.7" r="6.68" style="fill:#49725b"/><circle cx="98.87" cy="390.7" r="6.68" style="fill:#49725b"/><circle cx="114.23" cy="390.7" r="6.68" style="fill:#49725b"/><circle cx="129.59" cy="390.7" r="6.68" style="fill:#49725b"/><circle cx="144.96" cy="390.7" r="6.68" style="fill:#49725b"/><circle cx="160.32" cy="390.7" r="6.68" style="fill:#49725b"/><circle cx="175.68" cy="390.7" r="6.68" style="fill:#49725b"/><circle cx="191.04" cy="390.7" r="6.68" style="fill:#49725b"/><circle cx="206.4" cy="390.7" r="6.68" style="fill:#49725b"/><circle cx="221.76" cy="390.7" r="6.68" style="fill:#49725b"/><circle cx="252.43" cy="375.34" r="6.68" style="fill:#49725b"/><circle cx="237.12" cy="375.34" r="6.68" style="fill:#49725b"/><circle cx="267.79" cy="375.34" r="6.68" style="fill:#49725b"/><circle cx="283.15" cy="375.34" r="6.68" style="fill:#49725b"/><circle cx="298.51" cy="375.34" r="6.68" style="fill:#49725b"/><circle cx="313.87" cy="375.34" r="6.68" style="fill:#49725b"/><circle cx="329.23" cy="375.34" r="6.68" style="fill:#49725b"/><circle cx="344.59" cy="375.34" r="6.68" style="fill:#49725b"/><circle cx="359.95" cy="375.34" r="6.68" style="fill:#49725b"/><circle cx="375.31" cy="375.34" r="6.68" style="fill:#49725b"/><circle cx="390.67" cy="375.34" r="6.68" style="fill:#49725b"/><circle cx="406.03" cy="375.34" r="6.68" style="fill:#49725b"/><circle cx="421.39" cy="375.34" r="6.68" style="fill:#49725b"/><circle cx="436.75" cy="375.34" r="6.68" style="fill:#49725b"/><circle cx="452.12" cy="375.34" r="6.68" style="fill:#49725b"/><circle cx="467.48" cy="375.34" r="6.68" style="fill:#49725b"/><circle cx="482.84" cy="375.34" r="6.68" style="fill:#49725b"/><circle cx="68.15" cy="375.34" r="6.68" style="fill:#49725b"/><circle cx="83.51" cy="375.34" r="6.68" style="fill:#49725b"/><circle cx="98.87" cy="375.34" r="6.68" style="fill:#49725b"/><circle cx="114.23" cy="375.34" r="6.68" style="fill:#49725b"/><circle cx="129.59" cy="375.34" r="6.68" style="fill:#49725b"/><circle cx="144.96" cy="375.34" r="6.68" style="fill:#49725b"/><circle cx="160.32" cy="375.34" r="6.68" style="fill:#49725b"/><circle cx="175.68" cy="375.34" r="6.68" style="fill:#49725b"/><circle cx="191.04" cy="375.34" r="6.68" style="fill:#49725b"/><circle cx="206.4" cy="375.34" r="6.68" style="fill:#49725b"/><circle cx="221.76" cy="375.34" r="6.68" style="fill:#49725b"/><circle cx="252.43" cy="359.98" r="6.68" style="fill:#49725b"/><circle cx="237.12" cy="359.98" r="6.68" style="fill:#49725b"/><circle cx="267.79" cy="359.98" r="6.68" style="fill:#49725b"/><circle cx="283.15" cy="359.98" r="6.68" style="fill:#49725b"/><circle cx="298.51" cy="359.98" r="6.68" style="fill:#49725b"/><circle cx="313.87" cy="359.98" r="6.68" style="fill:#49725b"/><circle cx="329.23" cy="359.98" r="6.68" style="fill:#49725b"/><circle cx="344.59" cy="359.98" r="6.68" style="fill:#49725b"/><circle cx="359.95" cy="359.98" r="6.68" style="fill:#49725b"/><circle cx="375.31" cy="359.98" r="6.68" style="fill:#49725b"/><circle cx="390.67" cy="359.98" r="6.68" style="fill:#49725b"/><circle cx="406.03" cy="359.98" r="6.68" style="fill:#49725b"/><circle cx="421.39" cy="359.98" r="6.68" style="fill:#49725b"/><circle cx="436.75" cy="359.98" r="6.68" style="fill:#49725b"/><circle cx="452.12" cy="359.98" r="6.68" style="fill:#49725b"/><circle cx="467.48" cy="359.98" r="6.68" style="fill:#49725b"/><circle cx="482.84" cy="359.98" r="6.68" style="fill:#49725b"/><circle cx="98.87" cy="359.98" r="6.68" style="fill:#49725b"/><circle cx="114.23" cy="359.98" r="6.68" style="fill:#49725b"/><circle cx="129.59" cy="359.98" r="6.68" style="fill:#49725b"/><circle cx="144.96" cy="359.98" r="6.68" style="fill:#49725b"/><circle cx="160.32" cy="359.98" r="6.68" style="fill:#49725b"/><circle cx="175.68" cy="359.98" r="6.68" style="fill:#49725b"/><circle cx="191.04" cy="359.98" r="6.68" style="fill:#49725b"/><circle cx="206.4" cy="359.98" r="6.68" style="fill:#49725b"/><circle cx="221.76" cy="359.98" r="6.68" style="fill:#49725b"/><circle cx="252.43" cy="344.62" r="6.68" style="fill:#49725b"/><circle cx="237.12" cy="344.62" r="6.68" style="fill:#49725b"/><circle cx="267.79" cy="344.62" r="6.68" style="fill:#49725b"/><circle cx="283.15" cy="344.62" r="6.68" style="fill:#49725b"/><circle cx="298.51" cy="344.62" r="6.68" style="fill:#49725b"/><circle cx="313.87" cy="344.62" r="6.68" style="fill:#49725b"/><circle cx="329.23" cy="344.62" r="6.68" style="fill:#49725b"/><circle cx="344.59" cy="344.62" r="6.68" style="fill:#49725b"/><circle cx="359.95" cy="344.62" r="6.68" style="fill:#49725b"/><circle cx="375.31" cy="344.62" r="6.68" style="fill:#49725b"/><circle cx="390.67" cy="344.62" r="6.68" style="fill:#49725b"/><circle cx="406.03" cy="344.62" r="6.68" style="fill:#49725b"/><circle cx="421.39" cy="344.62" r="6.68" style="fill:#49725b"/><circle cx="436.75" cy="344.62" r="6.68" style="fill:#49725b"/><circle cx="452.12" cy="344.62" r="6.68" style="fill:#49725b"/><circle cx="467.48" cy="344.62" r="6.68" style="fill:#49725b"/><circle cx="482.84" cy="344.62" r="6.68" style="fill:#49725b"/><circle cx="144.96" cy="344.62" r="6.68" style="fill:#49725b"/><circle cx="160.32" cy="344.62" r="6.68" style="fill:#49725b"/><circle cx="175.68" cy="344.62" r="6.68" style="fill:#49725b"/><circle cx="191.04" cy="344.62" r="6.68" style="fill:#49725b"/><circle cx="206.4" cy="344.62" r="6.68" style="fill:#49725b"/><circle cx="221.76" cy="344.62" r="6.68" style="fill:#49725b"/><circle cx="252.43" cy="329.26" r="6.68" style="fill:#49725b"/><circle cx="237.12" cy="329.26" r="6.68" style="fill:#49725b"/><circle cx="267.79" cy="329.26" r="6.68" style="fill:#49725b"/><circle cx="283.15" cy="329.26" r="6.68" style="fill:#49725b"/><circle cx="298.51" cy="329.26" r="6.68" style="fill:#49725b"/><circle cx="313.87" cy="329.26" r="6.68" style="fill:#49725b"/><circle cx="329.23" cy="329.26" r="6.68" style="fill:#49725b"/><circle cx="344.59" cy="329.26" r="6.68" style="fill:#49725b"/><circle cx="359.95" cy="329.26" r="6.68" style="fill:#49725b"/><circle cx="375.31" cy="329.26" r="6.68" style="fill:#49725b"/><circle cx="390.67" cy="329.26" r="6.68" style="fill:#49725b"/><circle cx="406.03" cy="329.26" r="6.68" style="fill:#49725b"/><circle cx="421.39" cy="329.26" r="6.68" style="fill:#49725b"/><circle cx="436.75" cy="329.26" r="6.68" style="fill:#49725b"/><circle cx="452.12" cy="329.26" r="6.68" style="fill:#49725b"/><circle cx="467.48" cy="329.26" r="6.68" style="fill:#49725b"/><circle cx="482.84" cy="329.26" r="6.68" style="fill:#49725b"/><circle cx="68.15" cy="329.26" r="6.68" style="fill:#49725b"/><circle cx="83.51" cy="329.26" r="6.68" style="fill:#49725b"/><circle cx="98.87" cy="329.26" r="6.68" style="fill:#49725b"/><circle cx="114.23" cy="329.26" r="6.68" style="fill:#49725b"/><circle cx="129.59" cy="329.26" r="6.68" style="fill:#49725b"/><circle cx="160.32" cy="329.26" r="6.68" style="fill:#49725b"/><circle cx="175.68" cy="329.26" r="6.68" style="fill:#49725b"/><circle cx="191.04" cy="329.26" r="6.68" style="fill:#49725b"/><circle cx="206.4" cy="329.26" r="6.68" style="fill:#49725b"/><circle cx="221.76" cy="329.26" r="6.68" style="fill:#49725b"/><circle cx="252.43" cy="313.9" r="6.68" style="fill:#49725b"/><circle cx="237.12" cy="313.9" r="6.68" style="fill:#49725b"/><circle cx="267.79" cy="313.9" r="6.68" style="fill:#49725b"/><circle cx="283.15" cy="313.9" r="6.68" style="fill:#49725b"/><circle cx="298.51" cy="313.9" r="6.68" style="fill:#49725b"/><circle cx="313.87" cy="313.9" r="6.68" style="fill:#49725b"/><circle cx="329.23" cy="313.9" r="6.68" style="fill:#49725b"/><circle cx="344.59" cy="313.9" r="6.68" style="fill:#49725b"/><circle cx="359.95" cy="313.9" r="6.68" style="fill:#49725b"/><circle cx="375.31" cy="313.9" r="6.68" style="fill:#49725b"/><circle cx="390.67" cy="313.9" r="6.68" style="fill:#49725b"/><circle cx="406.03" cy="313.9" r="6.68" style="fill:#49725b"/><circle cx="421.39" cy="313.9" r="6.68" style="fill:#49725b"/><circle cx="436.75" cy="313.9" r="6.68" style="fill:#49725b"/><circle cx="452.12" cy="313.9" r="6.68" style="fill:#49725b"/><circle cx="467.48" cy="313.9" r="6.68" style="fill:#49725b"/><circle cx="482.84" cy="313.9" r="6.68" style="fill:#49725b"/><circle cx="83.51" cy="313.9" r="6.68" style="fill:#49725b"/><circle cx="98.87" cy="313.9" r="6.68" style="fill:#49725b"/><circle cx="114.23" cy="313.9" r="6.68" style="fill:#49725b"/><circle cx="129.59" cy="313.9" r="6.68" style="fill:#49725b"/><circle cx="144.96" cy="313.9" r="6.68" style="fill:#49725b"/><circle cx="175.68" cy="313.9" r="6.68" style="fill:#49725b"/><circle cx="191.04" cy="313.9" r="6.68" style="fill:#49725b"/><circle cx="206.4" cy="313.9" r="6.68" style="fill:#49725b"/><circle cx="221.76" cy="313.9" r="6.68" style="fill:#49725b"/><circle cx="252.43" cy="298.54" r="6.68" style="fill:#49725b"/><circle cx="237.12" cy="298.54" r="6.68" style="fill:#49725b"/><circle cx="267.79" cy="298.54" r="6.68" style="fill:#49725b"/><circle cx="283.15" cy="298.54" r="6.68" style="fill:#49725b"/><circle cx="298.51" cy="298.54" r="6.68" style="fill:#49725b"/><circle cx="313.87" cy="298.54" r="6.68" style="fill:#49725b"/><circle cx="329.23" cy="298.54" r="6.68" style="fill:#49725b"/><circle cx="344.59" cy="298.54" r="6.68" style="fill:#49725b"/><circle cx="359.95" cy="298.54" r="6.68" style="fill:#49725b"/><circle cx="375.31" cy="298.54" r="6.68" style="fill:#49725b"/><circle cx="390.67" cy="298.54" r="6.68" style="fill:#49725b"/><circle cx="406.03" cy="298.54" r="6.68" style="fill:#49725b"/><circle cx="421.39" cy="298.54" r="6.68" style="fill:#49725b"/><circle cx="436.75" cy="298.54" r="6.68" style="fill:#49725b"/><circle cx="452.12" cy="298.54" r="6.68" style="fill:#49725b"/><circle cx="467.48" cy="298.54" r="6.68" style="fill:#49725b"/><circle cx="482.84" cy="298.54" r="6.68" style="fill:#49725b"/><circle cx="22.07" cy="298.54" r="6.68" style="fill:#49725b"/><circle cx="37.43" cy="298.54" r="6.68" style="fill:#49725b"/><circle cx="52.79" cy="298.54" r="6.68" style="fill:#49725b"/><circle cx="83.51" cy="298.54" r="6.68" style="fill:#49725b"/><circle cx="98.87" cy="298.54" r="6.68" style="fill:#49725b"/><circle cx="114.23" cy="298.54" r="6.68" style="fill:#49725b"/><circle cx="129.59" cy="298.54" r="6.68" style="fill:#49725b"/><circle cx="144.96" cy="298.54" r="6.68" style="fill:#49725b"/><circle cx="191.04" cy="298.54" r="6.68" style="fill:#49725b"/><circle cx="206.4" cy="298.54" r="6.68" style="fill:#49725b"/><circle cx="221.76" cy="298.54" r="6.68" style="fill:#49725b"/><circle cx="252.43" cy="283.17" r="6.68" style="fill:#49725b"/><circle cx="237.12" cy="283.17" r="6.68" style="fill:#49725b"/><circle cx="267.79" cy="283.17" r="6.68" style="fill:#49725b"/><circle cx="283.15" cy="283.17" r="6.68" style="fill:#49725b"/><circle cx="298.51" cy="283.17" r="6.68" style="fill:#49725b"/><circle cx="313.87" cy="283.17" r="6.68" style="fill:#49725b"/><circle cx="329.23" cy="283.17" r="6.68" style="fill:#49725b"/><circle cx="344.59" cy="283.17" r="6.68" style="fill:#49725b"/><circle cx="359.95" cy="283.17" r="6.68" style="fill:#49725b"/><circle cx="375.31" cy="283.17" r="6.68" style="fill:#49725b"/><circle cx="390.67" cy="283.17" r="6.68" style="fill:#49725b"/><circle cx="406.03" cy="283.17" r="6.68" style="fill:#49725b"/><circle cx="421.39" cy="283.17" r="6.68" style="fill:#49725b"/><circle cx="436.75" cy="283.17" r="6.68" style="fill:#49725b"/><circle cx="452.12" cy="283.17" r="6.68" style="fill:#49725b"/><circle cx="467.48" cy="283.17" r="6.68" style="fill:#49725b"/><circle cx="482.84" cy="283.17" r="6.68" style="fill:#49725b"/><circle cx="22.07" cy="283.17" r="6.68" style="fill:#49725b"/><circle cx="37.43" cy="283.17" r="6.68" style="fill:#49725b"/><circle cx="52.79" cy="283.17" r="6.68" style="fill:#49725b"/><circle cx="98.87" cy="283.17" r="6.68" style="fill:#49725b"/><circle cx="114.23" cy="283.17" r="6.68" style="fill:#49725b"/><circle cx="129.59" cy="283.17" r="6.68" style="fill:#49725b"/><circle cx="237.12" cy="267.81" r="6.68" style="fill:#49725b"/><circle cx="313.87" cy="267.81" r="6.68" style="fill:#49725b"/><circle cx="344.59" cy="267.81" r="6.68" style="fill:#49725b"/><circle cx="359.95" cy="267.81" r="6.68" style="fill:#49725b"/><circle cx="375.31" cy="267.81" r="6.68" style="fill:#49725b"/><circle cx="390.67" cy="267.81" r="6.68" style="fill:#49725b"/><circle cx="406.03" cy="267.81" r="6.68" style="fill:#49725b"/><circle cx="421.39" cy="267.81" r="6.68" style="fill:#49725b"/><circle cx="436.75" cy="267.81" r="6.68" style="fill:#49725b"/><circle cx="452.12" cy="267.81" r="6.68" style="fill:#49725b"/><circle cx="467.48" cy="267.81" r="6.68" style="fill:#49725b"/><circle cx="37.43" cy="267.81" r="6.68" style="fill:#49725b"/><circle cx="52.79" cy="267.81" r="6.68" style="fill:#49725b"/><circle cx="68.15" cy="267.81" r="6.68" style="fill:#49725b"/><circle cx="98.87" cy="267.81" r="6.68" style="fill:#49725b"/><circle cx="114.23" cy="267.81" r="6.68" style="fill:#49725b"/><circle cx="129.59" cy="267.81" r="6.68" style="fill:#49725b"/><circle cx="221.76" cy="267.81" r="6.68" style="fill:#49725b"/><circle cx="252.43" cy="482.87" r="6.68" style="fill:#49725b"/><circle cx="267.79" cy="482.87" r="6.68" style="fill:#49725b"/><circle cx="283.15" cy="482.87" r="6.68" style="fill:#49725b"/><circle cx="344.59" cy="482.87" r="6.68" style="fill:#49725b"/><circle cx="359.95" cy="482.87" r="6.68" style="fill:#49725b"/><circle cx="375.31" cy="482.87" r="6.68" style="fill:#49725b"/><circle cx="390.67" cy="482.87" r="6.68" style="fill:#49725b"/><circle cx="406.03" cy="482.87" r="6.68" style="fill:#49725b"/><circle cx="421.39" cy="482.87" r="6.68" style="fill:#49725b"/><circle cx="436.75" cy="482.87" r="6.68" style="fill:#49725b"/><circle cx="452.12" cy="482.87" r="6.68" style="fill:#49725b"/><circle cx="467.48" cy="482.87" r="6.68" style="fill:#49725b"/><circle cx="482.84" cy="482.87" r="6.68" style="fill:#49725b"/><circle cx="6.71" cy="482.87" r="6.68" style="fill:#49725b"/><circle cx="22.07" cy="482.87" r="6.68" style="fill:#49725b"/><circle cx="37.43" cy="482.87" r="6.68" style="fill:#49725b"/><circle cx="52.79" cy="482.87" r="6.68" style="fill:#49725b"/><circle cx="68.15" cy="482.87" r="6.68" style="fill:#49725b"/><circle cx="83.51" cy="482.87" r="6.68" style="fill:#49725b"/><circle cx="98.87" cy="482.87" r="6.68" style="fill:#49725b"/><circle cx="114.23" cy="482.87" r="6.68" style="fill:#49725b"/><circle cx="129.59" cy="482.87" r="6.68" style="fill:#49725b"/><circle cx="144.96" cy="482.87" r="6.68" style="fill:#49725b"/><circle cx="191.04" cy="482.87" r="6.68" style="fill:#49725b"/><circle cx="252.43" cy="467.5" r="6.68" style="fill:#49725b"/><circle cx="237.12" cy="467.5" r="6.68" style="fill:#49725b"/><circle cx="267.79" cy="467.5" r="6.68" style="fill:#49725b"/><circle cx="283.15" cy="467.5" r="6.68" style="fill:#49725b"/><circle cx="313.87" cy="467.5" r="6.68" style="fill:#49725b"/><circle cx="329.23" cy="467.5" r="6.68" style="fill:#49725b"/><circle cx="344.59" cy="467.5" r="6.68" style="fill:#49725b"/><circle cx="359.95" cy="467.5" r="6.68" style="fill:#49725b"/><circle cx="375.31" cy="467.5" r="6.68" style="fill:#49725b"/><circle cx="390.67" cy="467.5" r="6.68" style="fill:#49725b"/><circle cx="406.03" cy="467.5" r="6.68" style="fill:#49725b"/><circle cx="421.39" cy="467.5" r="6.68" style="fill:#49725b"/><circle cx="436.75" cy="467.5" r="6.68" style="fill:#49725b"/><circle cx="452.12" cy="467.5" r="6.68" style="fill:#49725b"/><circle cx="467.48" cy="467.5" r="6.68" style="fill:#49725b"/><circle cx="6.71" cy="467.5" r="6.68" style="fill:#49725b"/><circle cx="22.07" cy="467.5" r="6.68" style="fill:#49725b"/><circle cx="37.43" cy="467.5" r="6.68" style="fill:#49725b"/><circle cx="52.79" cy="467.5" r="6.68" style="fill:#49725b"/><circle cx="68.15" cy="467.5" r="6.68" style="fill:#49725b"/><circle cx="83.51" cy="467.5" r="6.68" style="fill:#49725b"/><circle cx="98.87" cy="467.5" r="6.68" style="fill:#49725b"/><circle cx="114.23" cy="467.5" r="6.68" style="fill:#49725b"/><circle cx="129.59" cy="467.5" r="6.68" style="fill:#49725b"/><circle cx="144.96" cy="467.5" r="6.68" style="fill:#49725b"/><circle cx="160.32" cy="467.5" r="6.68" style="fill:#49725b"/><circle cx="175.68" cy="467.5" r="6.68" style="fill:#49725b"/><circle cx="191.04" cy="467.5" r="6.68" style="fill:#49725b"/><circle cx="206.4" cy="467.5" r="6.68" style="fill:#49725b"/><circle cx="252.43" cy="452.14" r="6.68" style="fill:#49725b"/><circle cx="237.12" cy="452.14" r="6.68" style="fill:#49725b"/><circle cx="267.79" cy="452.14" r="6.68" style="fill:#49725b"/><circle cx="313.87" cy="452.14" r="6.68" style="fill:#49725b"/><circle cx="329.23" cy="452.14" r="6.68" style="fill:#49725b"/><circle cx="344.59" cy="452.14" r="6.68" style="fill:#49725b"/><circle cx="359.95" cy="452.14" r="6.68" style="fill:#49725b"/><circle cx="375.31" cy="452.14" r="6.68" style="fill:#49725b"/><circle cx="390.67" cy="452.14" r="6.68" style="fill:#49725b"/><circle cx="406.03" cy="452.14" r="6.68" style="fill:#49725b"/><circle cx="421.39" cy="452.14" r="6.68" style="fill:#49725b"/><circle cx="436.75" cy="452.14" r="6.68" style="fill:#49725b"/><circle cx="452.12" cy="452.14" r="6.68" style="fill:#49725b"/><circle cx="467.48" cy="452.14" r="6.68" style="fill:#49725b"/><circle cx="6.71" cy="452.14" r="6.68" style="fill:#49725b"/><circle cx="22.07" cy="452.14" r="6.68" style="fill:#49725b"/><circle cx="37.43" cy="452.14" r="6.68" style="fill:#49725b"/><circle cx="98.87" cy="452.14" r="6.68" style="fill:#49725b"/><circle cx="114.23" cy="452.14" r="6.68" style="fill:#49725b"/><circle cx="129.59" cy="452.14" r="6.68" style="fill:#49725b"/><circle cx="144.96" cy="452.14" r="6.68" style="fill:#49725b"/><circle cx="160.32" cy="452.14" r="6.68" style="fill:#49725b"/><circle cx="175.68" cy="452.14" r="6.68" style="fill:#49725b"/><circle cx="191.04" cy="452.14" r="6.68" style="fill:#49725b"/><circle cx="206.4" cy="452.14" r="6.68" style="fill:#49725b"/><circle cx="221.76" cy="452.14" r="6.68" style="fill:#49725b"/><circle cx="252.43" cy="436.78" r="6.68" style="fill:#49725b"/><circle cx="237.12" cy="436.78" r="6.68" style="fill:#49725b"/><circle cx="267.79" cy="436.78" r="6.68" style="fill:#49725b"/><circle cx="283.15" cy="436.78" r="6.68" style="fill:#49725b"/><circle cx="298.51" cy="436.78" r="6.68" style="fill:#49725b"/><circle cx="313.87" cy="436.78" r="6.68" style="fill:#49725b"/><circle cx="329.23" cy="436.78" r="6.68" style="fill:#49725b"/><circle cx="344.59" cy="436.78" r="6.68" style="fill:#49725b"/><circle cx="359.95" cy="436.78" r="6.68" style="fill:#49725b"/><circle cx="375.31" cy="436.78" r="6.68" style="fill:#49725b"/><circle cx="390.67" cy="436.78" r="6.68" style="fill:#49725b"/><circle cx="406.03" cy="436.78" r="6.68" style="fill:#49725b"/><circle cx="421.39" cy="436.78" r="6.68" style="fill:#49725b"/><circle cx="436.75" cy="436.78" r="6.68" style="fill:#49725b"/><circle cx="452.12" cy="436.78" r="6.68" style="fill:#49725b"/><circle cx="467.48" cy="436.78" r="6.68" style="fill:#49725b"/><circle cx="482.84" cy="436.78" r="6.68" style="fill:#49725b"/><circle cx="98.87" cy="436.78" r="6.68" style="fill:#49725b"/><circle cx="114.23" cy="436.78" r="6.68" style="fill:#49725b"/><circle cx="129.59" cy="436.78" r="6.68" style="fill:#49725b"/><circle cx="144.96" cy="436.78" r="6.68" style="fill:#49725b"/><circle cx="160.32" cy="436.78" r="6.68" style="fill:#49725b"/><circle cx="175.68" cy="436.78" r="6.68" style="fill:#49725b"/><circle cx="191.04" cy="436.78" r="6.68" style="fill:#49725b"/><circle cx="206.4" cy="436.78" r="6.68" style="fill:#49725b"/><circle cx="221.76" cy="436.78" r="6.68" style="fill:#49725b"/><circle cx="252.43" cy="421.42" r="6.68" style="fill:#49725b"/><circle cx="237.12" cy="421.42" r="6.68" style="fill:#49725b"/><circle cx="267.79" cy="421.42" r="6.68" style="fill:#49725b"/><circle cx="283.15" cy="421.42" r="6.68" style="fill:#49725b"/><circle cx="298.51" cy="421.42" r="6.68" style="fill:#49725b"/><circle cx="313.87" cy="421.42" r="6.68" style="fill:#49725b"/><circle cx="329.23" cy="421.42" r="6.68" style="fill:#49725b"/><circle cx="344.59" cy="421.42" r="6.68" style="fill:#49725b"/><circle cx="359.95" cy="421.42" r="6.68" style="fill:#49725b"/><circle cx="375.31" cy="421.42" r="6.68" style="fill:#49725b"/><circle cx="390.67" cy="421.42" r="6.68" style="fill:#49725b"/><circle cx="406.03" cy="421.42" r="6.68" style="fill:#49725b"/><circle cx="421.39" cy="421.42" r="6.68" style="fill:#49725b"/><circle cx="436.75" cy="421.42" r="6.68" style="fill:#49725b"/><circle cx="452.12" cy="421.42" r="6.68" style="fill:#49725b"/><circle cx="467.48" cy="421.42" r="6.68" style="fill:#49725b"/><circle cx="482.84" cy="421.42" r="6.68" style="fill:#49725b"/><circle cx="114.23" cy="421.42" r="6.68" style="fill:#49725b"/><circle cx="129.59" cy="421.42" r="6.68" style="fill:#49725b"/><circle cx="144.96" cy="421.42" r="6.68" style="fill:#49725b"/><circle cx="160.32" cy="421.42" r="6.68" style="fill:#49725b"/><circle cx="175.68" cy="421.42" r="6.68" style="fill:#49725b"/><circle cx="191.04" cy="421.42" r="6.68" style="fill:#49725b"/><circle cx="206.4" cy="421.42" r="6.68" style="fill:#49725b"/><circle cx="221.76" cy="421.42" r="6.68" style="fill:#49725b"/></svg>