<svg id="b0b3e79d-1906-4151-ab06-0cf5cd2a3894" data-name="Ebene 1" xmlns="http://www.w3.org/2000/svg" xmlns:xlink="http://www.w3.org/1999/xlink" viewBox="0 0 147.56 208.99"><defs><clipPath id="e1140fc1-2b40-49a4-b50d-4026712fdfa3"><path d="M73.78,121.52h0a47.74,47.74,0,1,1,47.74-47.74A47.78,47.78,0,0,1,73.78,121.52Z" style="fill:none"/></clipPath></defs><path d="M73.88,0h-.1A73.84,73.84,0,0,0,0,73.68c0,19.7,9.15,44.42,27.19,73.5a448.24,448.24,0,0,0,37.44,51L73.79,209l9.15-10.8c19.43-22.93,64.62-81,64.62-124.41A73.73,73.73,0,0,0,73.88,0Z" style="fill:#fff"/><g style="clip-path:url(#e1140fc1-2b40-49a4-b50d-4026712fdfa3)"><rect x="-7.93" y="26.12" width="163.42" height="95.32" style="fill:#c71621"/><polygon points="44.01 64.85 64.85 64.85 64.85 43.99 82.73 43.99 82.73 64.85 103.58 64.85 103.58 82.72 82.73 82.72 82.73 103.57 64.85 103.57 64.85 82.72 44.01 82.72 44.01 64.85" style="fill:#fff"/><rect x="-7.93" y="26.12" width="163.42" height="95.32" style="fill:none"/></g><path d="M117.52,30.11A61.39,61.39,0,0,0,73.88,12h-.14A61.8,61.8,0,0,0,12,73.69c0,40.73,47.11,99.45,61.78,116.74,14.66-17.3,61.78-76,61.78-116.65A61.31,61.31,0,0,0,117.52,30.11ZM73.78,121.52a47.74,47.74,0,1,1,47.74-47.74A47.78,47.78,0,0,1,73.78,121.52Z" style="fill:#8bbd7e"/></svg>