<?xml version="1.0" encoding="utf-8"?>
<!-- Generator: Adobe Illustrator 25.4.1, SVG Export Plug-In . SVG Version: 6.00 Build 0)  -->
<svg version="1.1" id="Ebene_1" xmlns="http://www.w3.org/2000/svg" xmlns:xlink="http://www.w3.org/1999/xlink" x="0px" y="0px"
	 viewBox="0 0 502.1 172.4" style="enable-background:new 0 0 502.1 172.4;" xml:space="preserve">
<style type="text/css">
	.st0{fill:#49725B;}
</style>
<g id="Ebene_2_00000032631698984637905720000003414608821767514511_">
	<g id="Ebene_1-2">
		<polygon class="st0" points="337.2,15.4 337.2,109.3 391,109.3 391,97.4 351.2,97.4 351.2,66.2 386.8,66.2 386.8,54.4 351.2,54.4 
			351.2,27.3 389,27.3 389,15.4 		"/>
		<path class="st0" d="M467.8,15.4H452l-31.9,93.9h14.4l9.5-28.9h31.2l9.8,28.9h14.7L467.8,15.4z M447.1,69.2l8.6-25.3
			c0,0,2.5-9.2,3.8-14c0.7,2.5,3.9,14.1,3.9,14.1l8.7,25.2L447.1,69.2z"/>
		<polygon class="st0" points="157,15.4 157,109.3 210.8,109.3 210.8,97.4 171,97.4 171,66.2 206.6,66.2 206.6,54.4 171,54.4 
			171,27.3 208.8,27.3 208.8,15.4 		"/>
		<path class="st0" d="M269.9,61.8c-3,0.1-5.9-0.2-8.8-0.8V26.9c3.4-0.6,6.8-0.9,10.2-0.8c13.4,0,20.7,6.1,20.7,17.2
			C292,55.1,284,61.8,269.9,61.8 M297.4,22.6c-5.8-5.2-14.7-7.9-26.4-7.9c-7.7-0.1-15.4,0.6-23,1.9l-0.8,0.1v92.5h13.8V72.6
			c2.8,0.5,5.7,0.7,8.6,0.7c12.3,0,22.5-3.7,28.8-10.4c5-5,7.5-11.8,7.5-20.3C305.9,34.5,302.9,27.4,297.4,22.6"/>
		<path class="st0" d="M8.4,171.8h2.1v-11.3H15c2.3,0.2,4.5-0.5,6.3-2c1.7-1.6,2.6-3.9,2.4-6.2c0.1-2.6-1.1-5-3.3-6.5
			c-1.4-1-3-1.3-5.8-1.3H8.4V171.8z M10.4,158.7v-12.3H14c2.5,0,4.1,0.4,5.2,1.4c1.4,1.2,2.2,3.1,2,4.9c0,1.6-0.6,3.2-1.7,4.4
			c-1,1-2.4,1.6-4.7,1.6L10.4,158.7z M27.6,171.8h2.2l2.7-8.9h10.1l2.7,8.9h2.4L39,144.5h-2.8L27.6,171.8z M33,161.1l4.5-14.6
			l4.5,14.6H33z M55.6,171.8h2.1v-12.5h1.2c1.7,0,2.6,1,3.6,2.4c2.3,3.2,4.3,6.6,6.1,10.1h2.7c-0.7-1.1-3.6-6-5.3-8.8
			c-1.4-2.2-2.1-3-3.3-3.8h0.3c4.3,0,7.1-2.7,7.1-7.3c0.1-2.2-0.9-4.3-2.5-5.8c-1.2-1.1-3-1.7-6.5-1.7h-5.3L55.6,171.8z M57.7,157.8
			v-11.5H61c1.4-0.1,2.9,0.2,4.2,0.9c1.6,1,2.5,2.7,2.5,4.6c0.2,1.7-0.5,3.4-1.7,4.6c-1.1,0.9-2.5,1.4-5,1.4H57.7z M83.4,171.8h2.1
			v-25.4h7.3l0.2-1.9H76.3v1.9h7.2L83.4,171.8z M121.5,172.2c2.7,0,5.3-1.2,6.9-3.4c2.1-2.4,3.1-5.7,3.1-10.4c0-4.2-0.8-7.4-2.2-9.8
			c-1.6-2.9-4.6-4.7-7.9-4.6c-3.1-0.1-6,1.6-7.6,4.2c-1.7,3-2.5,6.4-2.4,9.8c0,4.4,1,7.9,2.7,10.2
			C115.8,170.8,118.6,172.3,121.5,172.2 M121.6,170.5c-2.5,0-4.9-1.4-6.1-3.5c-1.2-2.9-1.8-6.1-1.7-9.3c-0.1-2.7,0.4-5.5,1.5-8
			c1.2-2.3,3.6-3.7,6.1-3.7c2.7-0.1,5.2,1.6,6.3,4.1c1,2,1.4,4.9,1.4,8.8c0,4.3-0.6,6.6-1.9,8.6C126.1,169.4,124,170.6,121.6,170.5
			 M141.4,171.8h2.2v-13.4h8.8v-1.9h-8.8v-10.2h10.7l0.3-1.9h-13.2L141.4,171.8z M174.1,171.8h5.4c3.8,0,5.9-0.6,8.3-3
			c2.1-2.1,3.4-5.7,3.4-10.7c0-5.3-1.4-9.2-4.4-11.5c-2.4-1.8-4.4-2.1-8.4-2.1h-4.4V171.8z M176.2,170v-23.6h3c3,0,5,0.4,6.8,2.3
			c1.9,2.1,2.9,4.9,2.9,9.7c0.2,3.2-0.7,6.4-2.6,9c-1.6,2.2-4.1,2.6-7,2.6L176.2,170z M201,171.8h2.1v-12.5h1.2c1.7,0,2.6,1,3.6,2.4
			c2.3,3.2,4.3,6.6,6.1,10.1h2.7c-0.7-1.1-3.6-6-5.4-8.8c-1.4-2.2-2.1-3-3.3-3.8h0.3c4.2,0,7.1-2.7,7.1-7.3c0.1-2.2-0.9-4.3-2.5-5.8
			c-1.2-1.1-3-1.7-6.4-1.7H201L201,171.8z M203.1,157.9v-11.5h3.4c1.4-0.1,2.9,0.2,4.2,0.9c1.6,1,2.5,2.7,2.5,4.6
			c0.1,1.7-0.5,3.4-1.8,4.6c-1.1,0.9-2.5,1.4-5,1.4L203.1,157.9z M225.3,171.8h14v-1.9h-11.8v-11.4h9.1v-1.9h-9.1v-10.2h11.1
			l0.3-1.9h-13.5L225.3,171.8z M248.1,171.8H262v-1.9h-11.7v-11.4h9.1v-1.9h-9.1v-10.2h11.1l0.3-1.9h-13.5L248.1,171.8z
			 M268.4,169.9c2.3,1.6,5,2.4,7.8,2.4c2,0.1,4-0.5,5.6-1.6c2-1.5,3.2-3.8,3.1-6.3c0-1.7-0.6-3.4-1.7-4.8c-1.2-1.3-2.7-2.2-4.4-2.6
			l-2.8-1c-1.3-0.3-2.5-1-3.5-1.9c-0.8-0.9-1.2-2.1-1.1-3.3c0-3.1,2.4-5,5.7-5c2.2,0,4.4,0.7,6.1,2.1l1-1.6
			c-2.1-1.5-4.6-2.4-7.2-2.4c-4.5,0-7.9,2.9-7.9,7.3c-0.1,1.6,0.5,3.2,1.6,4.5c1.2,1.1,2.7,2,4.3,2.4l2.6,0.9c1.3,0.4,2.5,1.1,3.6,2
			c0.9,1,1.4,2.3,1.3,3.6c0.1,1.7-0.7,3.4-2,4.4c-1.3,1-2.8,1.4-4.4,1.3c-2.5,0-4.9-0.8-6.8-2.3L268.4,169.9z M312.6,172.4
			c3,0,5.8-1.3,7.6-3.7l3,3.1h2.8l-4.6-4.8c1-1.8,1.6-3.6,1.6-8.2v-0.2h-1.8v0.3c0.2,2.3-0.2,4.6-1,6.7l-7-7.2c3.6-1.9,6-3.6,6-6.9
			c0-3.7-2.9-5.8-6.5-5.8c-3.4-0.2-6.3,2.5-6.5,5.9c0,0,0,0.1,0,0.1c0,2.1,1.3,4.1,3.8,6.4c-3.3,1.7-5.4,3.7-5.4,7.1
			c0,4.9,3.6,7.1,8.1,7.1 M311.9,157.1c-2.8-2.6-3.6-4.1-3.6-5.7c-0.1-2.2,1.6-4.1,3.8-4.2c0.2,0,0.3,0,0.5,0
			c2.2-0.1,4.1,1.5,4.2,3.7c0,0.1,0,0.3,0,0.4C316.9,153.8,315.2,155.5,311.9,157.1 M312.8,170.6c-3.7,0-6-2-6-5.3
			c0-2.7,1.6-4.7,4.4-6l8,8.1C317.7,169.5,315.3,170.7,312.8,170.6 M343.3,169.9c2.3,1.6,5,2.4,7.8,2.4c2,0.1,4-0.5,5.6-1.6
			c2-1.5,3.2-3.8,3.1-6.3c0-1.7-0.6-3.4-1.7-4.8c-1.2-1.3-2.7-2.2-4.4-2.6L351,156c-1.3-0.3-2.5-1-3.5-1.9c-0.8-0.9-1.2-2.1-1.1-3.3
			c0-3.1,2.4-5,5.7-5c2.2,0,4.4,0.7,6.1,2.1l0.9-1.6c-2.1-1.5-4.6-2.3-7.2-2.3c-4.6,0-7.9,2.9-7.9,7.3c-0.1,1.6,0.5,3.2,1.5,4.5
			c1.2,1.1,2.7,2,4.3,2.4l2.6,0.9c1.3,0.4,2.6,1.1,3.6,2c0.9,1,1.4,2.3,1.3,3.6c0.1,1.7-0.7,3.4-2,4.4c-1.3,1-2.8,1.4-4.4,1.3
			c-2.5,0-4.9-0.8-6.8-2.3L343.3,169.9z M378.1,172.2c2.7,0,5.3-1.2,6.9-3.4c2.1-2.4,3.1-5.7,3.1-10.4c0-4.2-0.8-7.4-2.2-9.8
			c-1.6-2.9-4.6-4.7-7.9-4.6c-3.1-0.1-6,1.6-7.6,4.2c-1.7,3-2.5,6.4-2.4,9.8c0,4.4,1,7.9,2.7,10.2
			C372.4,170.8,375.2,172.2,378.1,172.2 M378.2,170.5c-2.5,0-4.9-1.3-6.1-3.5c-1.3-2.9-1.8-6.1-1.7-9.3c-0.1-2.7,0.4-5.5,1.5-8
			c1.2-2.3,3.6-3.7,6.1-3.7c2.7-0.1,5.2,1.5,6.3,4.1c1,2,1.5,4.9,1.5,8.8c0,4.3-0.6,6.6-1.9,8.6
			C382.7,169.4,380.6,170.6,378.2,170.5 M396.8,171.8h2.1l1.7-21.3l0.2-3.9c0.2,0.6,0.3,1.3,1,3.9l5.9,21.3h1.9l6.1-21.9
			c0.4-1.4,0.8-3.3,0.9-3.4c0,0.1,0.1,3.2,0.1,3.6l1.8,21.7h2.2l-2.3-27.3h-3.1l-5.8,20.6c-0.3,1.1-0.6,2.2-0.8,3.4
			c0-0.2-0.3-1.7-0.8-3.6l-5.7-20.4h-3.1L396.8,171.8z M429.7,171.8h2.1l1.7-21.3l0.2-3.9c0.2,0.6,0.3,1.3,1,3.9l5.9,21.3h1.9
			l6.1-21.9c0.4-1.4,0.8-3.3,0.9-3.4c0,0.1,0.1,3.2,0.1,3.6l1.8,21.7h2.2l-2.3-27.3h-3.2l-5.8,20.6c-0.3,1.1-0.6,2.2-0.8,3.4
			c0-0.2-0.3-1.7-0.8-3.6l-5.6-20.4h-3.1L429.7,171.8z M463.6,171.8h14v-1.9h-11.8v-11.3h9.1v-1.9h-9.1v-10.2h11.1l0.3-1.9h-13.6
			L463.6,171.8z M486.4,171.8h2.1v-12.5h1.2c1.7,0,2.6,1,3.6,2.4c2.3,3.2,4.3,6.6,6.1,10.1h2.7c-0.7-1.1-3.6-6-5.4-8.8
			c-1.4-2.2-2.1-3-3.3-3.8h0.3c4.2,0,7.1-2.7,7.1-7.3c0.1-2.2-0.9-4.3-2.5-5.8c-1.2-1.1-3-1.7-6.5-1.7h-5.4L486.4,171.8z
			 M488.5,157.9v-11.5h3.4c1.4-0.1,2.9,0.2,4.2,0.9c1.6,1,2.5,2.7,2.5,4.6c0.1,1.7-0.5,3.4-1.8,4.6c-1.1,0.9-2.5,1.4-5,1.4
			L488.5,157.9z"/>
		<path class="st0" d="M52.1,20.3L65.9,3c-3.1-0.5-6.3-0.8-9.5-0.8C25.3,2.2,0,28.1,0,60.1s25.3,57.8,56.4,57.8s56.4-25.9,56.4-57.8
			c0-7.8-1.5-15.5-4.5-22.7L94.7,52.1c0.5,2.6,0.8,5.3,0.8,7.9c0,22.1-17.5,40-39.1,40s-39-17.9-39-40c0-18.7,12.6-34.5,29.5-38.8
			C48.6,20.8,50.4,20.5,52.1,20.3 M55.4,51.2l33.9-38.8L76.5,5.7L55.3,29.9L55.4,51.2z M91.3,43.2l17.5-21.6V0L84.6,31.1L91.3,43.2z
			"/>
	</g>
</g>
</svg>
